<?xml version="1.0" standalone="no"?><!DOCTYPE svg PUBLIC "-//W3C//DTD SVG 1.1//EN" "http://www.w3.org/Graphics/SVG/1.1/DTD/svg11.dtd"><svg t="1647259711741" class="icon" viewBox="0 0 1024 1024" version="1.1" xmlns="http://www.w3.org/2000/svg" p-id="4102" xmlns:xlink="http://www.w3.org/1999/xlink" width="200" height="200"><defs><style type="text/css"></style></defs><path d="M510.65 963C264.6 963 63.3 761.26 63.3 514.7S264.6 66.41 510.65 66.41 958 268.14 958 514.7 756.69 963 510.65 963zM655 858.61a377.28 377.28 0 0 0 198.65-199.12 371.82 371.82 0 0 0 0-289.58A377.18 377.18 0 0 0 655 170.79a369.15 369.15 0 0 0-288.64 0 377.09 377.09 0 0 0-198.71 199.12 371.82 371.82 0 0 0 0 289.58A377.12 377.12 0 0 0 366.33 858.6a369.21 369.21 0 0 0 288.64 0z" fill="#949DA6" p-id="4103"></path><path d="M260.57305 462.041799m26.516504 26.516504l154.856385 154.856385q26.516504 26.516504 0 53.033009l0 0q-26.516504 26.516504-53.033008 0l-154.856385-154.856385q-26.516504-26.516504 0-53.033009l0 0q26.516504-26.516504 53.033008 0Z" fill="#949DA6" p-id="4104"></path><path d="M361.88308 670.589982m26.516505-26.516504l306.177236-306.177236q26.516504-26.516504 53.033009 0l0 0q26.516504 26.516504 0 53.033008l-306.177237 306.177236q-26.516504 26.516504-53.033008 0l0 0q-26.516504-26.516504 0-53.033008Z" fill="#949DA6" p-id="4105"></path></svg>